<?xml version="1.0" encoding="UTF-8"?>
<svg id="_Слой_2" data-name="Слой_2" xmlns="http://www.w3.org/2000/svg" version="1.1" viewBox="0 0 1000 562">
  <!-- Generator: Adobe Illustrator 29.5.0, SVG Export Plug-In . SVG Version: 2.1.0 Build 137)  -->
  <defs>
    <style>
      .st0 {
        fill: #b9b8b8;
        stroke: #000;
        stroke-miterlimit: 10;
      }
    </style>
  </defs>
  <polygon class="st0" points="233.24 487.35 237.49 474.62 238.1 462.23 233.75 454.33 237.01 445.9 239.86 442.31 245.06 437.96 252.74 438.47 260.56 438.13 264.26 446.61 267.56 459.17 263.35 466.99 264.74 473.93 255.85 480.52 253.85 491.34 233.24 487.35"/>
  <polygon class="st0" points="245.06 437.96 251.37 423.72 255.68 415.96 254.47 406.85 261.61 397.53 264.71 398.58 277.45 405.5 286.45 408.7 289.68 412.91 280.16 420.32 273.19 438.09 272.03 443.52 264.26 446.61 260.56 438.13 253.73 438.82 245.06 437.96"/>
  <polygon class="st0" points="261.61 397.53 257.89 393.22 259.58 385.4 256.09 374.01 271.36 373.34 273.91 367.39 284.81 370.3 290.54 376.53 303.36 378.89 305.62 376.42 318.68 384.78 308.76 400.7 303.39 410.63 289.68 412.91 286.45 408.7 277.45 405.5 261.61 397.53"/>
  <polygon class="st0" points="253.85 491.34 264.01 490.23 269.94 498.34 268.26 501.71 274.55 514.71 285.39 512.81 293.79 512.24 298.86 501.85 287.29 478.08 282.94 470.34 275.18 464.8 267.56 459.17 263.35 466.99 264.74 473.93 255.85 480.52 253.85 491.34"/>
  <polygon class="st0" points="296.33 507.03 306.45 510.81 310.81 509.99 323.17 513.39 329.41 512.67 334 515.69 337.95 507.96 332.95 493.91 328.17 483.15 317.35 478.49 309.35 483.2 292.92 489.64 298.86 501.85 296.33 507.03"/>
  <polygon class="st0" points="292.92 489.64 309.35 483.21 317.36 478.5 317.89 463.17 305.11 461.75 302.05 452.32 294.71 447.59 272.03 443.52 264.26 446.61 267.56 459.17 282.94 470.34 287.29 478.08 292.92 489.64"/>
  <polygon class="st0" points="337.95 507.96 356.64 501.03 360.56 490.13 365.63 486.54 371.54 484.1 368.51 479.2 366.82 472.59 360.23 472.03 351.67 473.23 328.17 483.15 332.95 493.91 337.95 507.96"/>
  <polygon class="st0" points="317.35 478.49 328.17 483.15 351.67 473.23 360.23 472.03 366.82 472.59 370.24 463.61 362.87 455.3 355.77 451.18 334.62 446.24 324.99 454.43 317.89 463.17 317.35 478.49"/>
  <polygon class="st0" points="302.05 452.32 305.11 461.75 317.89 463.17 324.99 454.43 334.62 446.24 336 432.33 326.31 431.56 312.25 424.65 307.8 424.39 305.17 429.08 302.05 452.32"/>
  <polygon class="st0" points="280.16 420.32 273.19 438.09 272.03 443.52 294.71 447.59 302.05 452.32 305.17 429.08 307.8 424.4 303.39 410.63 289.68 412.91 280.16 420.32"/>
  <polygon class="st0" points="334.62 446.24 355.77 451.18 362.87 455.3 370.24 463.61 374.1 457.47 387.32 445.4 393.03 438.89 392.83 433.5 374.57 427.95 357.36 432.52 336 432.33 334.62 446.24"/>
  <polygon class="st0" points="318.68 384.78 308.76 400.7 303.39 410.63 327.03 404.73 344.16 400.75 355.54 391.83 347.14 389 335.89 386.3 328.87 384.19 318.68 384.78"/>
  <polygon class="st0" points="357.36 432.52 355.54 391.83 344.16 400.75 303.39 410.63 307.8 424.4 312.25 424.65 326.31 431.56 336 432.33 357.36 432.52"/>
  <polygon class="st0" points="374.57 427.95 392.83 433.5 393.03 438.89 409.74 435.14 424.02 425.89 424.25 418.92 411.04 416.77 392.75 407.49 386.58 408.79 376.2 404.56 366.18 397.83 359.24 392.43 355.53 391.82 357.36 432.52 374.57 427.95"/>
  <polygon class="st0" points="436.27 468.42 437.29 464.19 431.79 461.78 429.83 465.05 436.27 468.42"/>
  <polygon class="st0" points="411.9 470.7 417.95 475.51 422.38 469.02 418.73 464.28 411.77 466.95 411.9 470.7"/>
  <polygon class="st0" points="359.24 392.43 366.62 380.96 370.64 360.67 386.15 365.03 388.23 375.5 392.8 386.32 394.22 393.95 392.75 407.49 386.59 408.79 376.2 404.56 366.18 397.83 359.24 392.43"/>
  <polygon class="st0" points="418.83 418.04 422.38 415.58 424.49 404.61 424.86 395.62 418.83 387.08 410.99 379.12 388.21 375.5 392.8 386.32 394.22 393.95 392.75 407.49 411.04 416.77 418.83 418.04"/>
  <polygon class="st0" points="370.64 360.67 372.9 348.34 369.58 333.03 378 324.64 394.66 329.35 401.83 339.67 408.98 347.13 397.42 357.48 386.15 365.03 370.64 360.67"/>
  <polygon class="st0" points="410.99 379.12 388.23 375.5 386.15 365.03 397 357.89 408.98 347.13 427.57 363.82 410.99 379.12"/>
  <polygon class="st0" points="424.49 404.61 440.93 392.88 453.62 375.84 440.93 365.86 427.57 363.82 410.99 379.12 418.83 387.08 424.86 395.62 424.49 404.61"/>
  <polygon class="st0" points="369.58 333.03 364.8 322.81 363.92 313.21 365.88 307.11 373.88 302.94 387.97 311.84 378 324.64 369.58 333.03"/>
  <polygon class="st0" points="440.93 392.88 447.95 398.23 461.08 404.96 471.47 405.12 486.31 394.73 477.24 381.89 466.51 370.89 453.62 375.84 440.93 392.88"/>
  <polygon class="st0" points="378 324.64 387.97 311.84 398.92 304.28 411.77 307.45 424.26 313.26 408.98 347.13 401.83 339.67 394.66 329.35 378 324.64"/>
  <polygon class="st0" points="363.93 313.21 342.46 301.18 337.57 288.49 357.15 286.49 373.12 293.7 377.8 296.05 373.88 302.94 365.88 307.11 363.93 313.21"/>
  <polygon class="st0" points="398.92 304.28 387.97 311.84 373.88 302.94 377.8 296.05 380.26 294.4 376.1 274.41 393.46 285.32 398.93 295.85 398.92 304.28"/>
  <polygon class="st0" points="486.31 394.73 494.09 393.55 502.21 385.5 500.72 376.34 494.71 367.07 466.51 370.89 477.24 381.89 486.31 394.73"/>
  <polygon class="st0" points="453.62 375.84 466.51 370.89 494.71 367.07 478.1 348.28 463.99 349.12 440.93 365.86 453.62 375.84"/>
  <polygon class="st0" points="408.98 347.13 427.57 363.82 440.93 365.86 463.99 349.12 452.19 334.14 424.26 313.26 408.98 347.13"/>
  <polygon class="st0" points="398.92 304.28 411.77 307.45 424.26 313.26 443.34 300.88 446.21 279.6 421.82 256.81 418.59 271.09 400.07 280.1 393.46 285.32 398.93 295.85 398.92 304.28"/>
  <polygon class="st0" points="463.99 349.12 478.1 348.28 471.8 318.2 452.19 334.14 463.99 349.12"/>
  <polygon class="st0" points="424.26 313.26 452.19 334.14 471.8 318.2 463.7 306.71 443.34 300.88 424.26 313.26"/>
  <polygon class="st0" points="421.82 256.81 441.63 250.18 447.42 245.54 463.69 248.16 446.21 279.6 421.82 256.81"/>
  <polygon class="st0" points="443.34 300.88 446.21 279.6 480.53 280.33 489.26 296.15 463.7 306.71 443.34 300.88"/>
  <polygon class="st0" points="502.21 385.5 523.1 391.6 529.99 380.91 500.72 376.34 502.21 385.5"/>
  <polygon class="st0" points="507.16 439.26 501.43 421.56 510.83 414.61 513.52 422.52 507.16 439.26"/>
  <polygon class="st0" points="496.1 452.86 510.16 444.25 517.63 459.95 512.26 484.16 501.89 486.02 500.23 461.38 496.1 452.86"/>
  <polygon class="st0" points="500.72 376.34 494.71 367.07 514.98 352.04 529.98 380.91 500.72 376.34"/>
  <polygon class="st0" points="478.09 348.26 494.71 367.07 514.98 352.04 498.69 333.52 478.09 348.26"/>
  <polygon class="st0" points="523.1 391.6 529.06 412.52 540.81 420.33 549.79 407.73 544.79 389.69 529.98 380.91 523.1 391.6"/>
  <polygon class="st0" points="498.36 333.9 471.8 318.2 478.09 348.26 498.36 333.9"/>
  <polygon class="st0" points="489.26 296.15 499.78 301.27 525.74 316.77 498.36 333.9 471.8 318.2 463.7 306.71 489.26 296.15"/>
  <polygon class="st0" points="549.79 407.73 569.19 397.58 555.5 392.31 550.03 379.53 553.19 360.83 529.99 380.91 544.79 389.69 549.79 407.73"/>
  <polygon class="st0" points="514.98 352.04 528.07 338.05 538.83 335.58 552.02 341.52 555.42 353 553.19 360.83 529.98 380.91 514.98 352.04"/>
  <polygon class="st0" points="498.69 333.52 525.74 316.77 543.15 318.11 548.85 321.29 538.83 335.58 528.07 338.05 514.98 352.04 498.69 333.52"/>
  <polygon class="st0" points="540.81 420.33 561.22 438.09 571.01 442.84 573.57 429.66 549.79 407.73 540.81 420.33"/>
  <polygon class="st0" points="569.19 397.58 582.5 423 573.57 429.66 549.79 407.73 569.19 397.58"/>
  <polygon class="st0" points="571.01 442.84 593.79 453.29 601.4 445.62 573.57 429.66 571.01 442.84"/>
  <polygon class="st0" points="582.5 423 594.7 428.51 607.23 426.96 609.67 437.06 601.4 445.62 573.57 429.66 582.5 423"/>
  <polygon class="st0" points="593.79 453.29 607.67 471.29 618.89 470.41 615.45 460.6 619.58 453.51 601.4 445.62 593.79 453.29"/>
  <polygon class="st0" points="609.67 437.06 636 448.95 643 457.75 639.35 461.38 626.75 451.76 619.58 453.51 601.4 445.62 609.67 437.06"/>
  <polygon class="st0" points="607.67 471.29 611.56 486.32 608.01 499.33 611.99 500.06 619.57 490.17 625.32 473.69 618.89 470.41 607.67 471.29"/>
  <polygon class="st0" points="558.45 510.4 559.17 503.32 588.47 503.09 603.69 496.92 598.95 526.13 558.45 510.4"/>
  <polygon class="st0" points="582.27 539.24 584.51 537.5 586.53 539.58 584.38 541.8 582.27 539.24"/>
  <polygon class="st0" points="587.81 542.7 593.89 542.7 594 546.09 589.08 545.91 587.81 542.7"/>
  <polygon class="st0" points="446.21 279.6 463.69 248.16 475.44 243.87 491.44 253.75 494.37 270.77 480.53 280.33 446.21 279.6"/>
  <polygon class="st0" points="447.42 245.54 463.69 248.16 475.44 243.87 490.19 227.63 498.13 219.06 493.55 210.84 481.07 214.52 468.15 222.02 459.68 227.34 447.42 245.54"/>
  <polygon class="st0" points="555.42 353 571.31 360.61 580.65 376.75 590.07 361.13 584.96 346.87 565.69 334.78 552.02 341.52 555.42 353"/>
  <polygon class="st0" points="548.85 321.29 538.83 335.58 552.02 341.52 565.68 334.78 574.94 325.14 573.95 313.43 565.24 310.39 548.85 321.29"/>
  <polygon class="st0" points="525.74 316.77 543.15 318.11 548.85 321.29 565.24 310.39 558.63 293.99 539.4 293.98 525.74 316.77"/>
  <polygon class="st0" points="489.26 296.15 525.74 316.77 539.4 293.98 534.45 283.31 531.29 279.29 511.6 280.26 492.25 289.77 489.26 296.15"/>
  <polygon class="st0" points="580.65 376.75 602.63 395.03 613.51 401.4 621.06 384.71 621.43 373.4 609.37 359.86 590.07 361.13 580.65 376.75"/>
  <polygon class="st0" points="565.69 334.78 584.96 346.87 601.71 337.82 604.31 320.54 597.62 314.34 585.21 315.93 573.95 313.43 574.94 325.14 565.69 334.78"/>
  <polygon class="st0" points="489.26 296.15 492.25 289.77 512.16 280.03 531.29 279.29 530.49 267.6 521.83 257.17 494.37 270.77 480.53 280.33 489.26 296.15"/>
  <polygon class="st0" points="475.44 243.87 491.44 253.75 519.35 240.06 516.17 234.13 511.57 223.14 498.13 219.06 475.44 243.87"/>
  <polygon class="st0" points="494.37 270.77 521.83 257.17 535.37 251.63 530.35 241.95 519.35 240.06 491.44 253.75 494.37 270.77"/>
  <polygon class="st0" points="584.96 346.87 590.07 361.13 609.37 359.86 627.15 358.79 622.95 342.4 601.71 337.82 584.96 346.87"/>
  <polygon class="st0" points="621.43 373.4 609.37 359.86 627.15 358.79 651.25 359.63 652.46 378.9 621.43 373.4"/>
  <polygon class="st0" points="332.13 258.59 337.18 261.26 357.12 258.94 366.81 251.97 381.89 252.67 379.05 239.28 358.06 242.21 332.13 258.59"/>
  <polygon class="st0" points="383.07 254.99 383.66 258.58 390.93 257.35 383.07 254.99"/>
  <polygon class="st0" points="381.89 252.67 392.52 253.37 404.63 256.15 416.09 253.54 417.76 246.81 408.11 246.62 381.49 233.27 379.05 239.28 381.89 252.67"/>
  <polygon class="st0" points="381.49 233.27 379.05 239.28 361.71 241.7 358.24 234.06 345.24 230.15 347.4 224.89 360.09 217.6 375.18 218.9 381.49 233.27"/>
  <polygon class="st0" points="408.11 246.62 412.07 237.74 419.43 237.53 425.47 231.62 423.54 221.59 417.25 217.29 403.48 222.06 396.02 240.56 408.11 246.62"/>
  <polygon class="st0" points="381.49 233.27 396.02 240.56 403.48 222.06 408.7 213.06 407.52 208.5 375.18 218.9 381.49 233.27"/>
  <polygon class="st0" points="360.09 217.6 360.09 210.21 353.19 211.03 353.6 207.81 357.78 202.57 369.63 204.63 375.18 218.9 360.09 217.6"/>
  <polygon class="st0" points="407.52 208.5 406.67 202.85 405.77 190.1 396.18 180.85 379.61 190.04 369.63 204.63 375.18 218.9 407.52 208.5"/>
  <polygon class="st0" points="360.28 187.87 363.75 183.05 360.49 180.65 357.83 186.88 360.28 187.87"/>
  <polygon class="st0" points="379.61 190.04 372.91 186.77 373.21 179.06 376.52 174.49 384.44 171.54 393.53 170.97 395.9 172.42 396.18 180.85 379.61 190.04"/>
  <polygon class="st0" points="395.99 163.62 393.53 170.97 384.44 171.54 376.52 174.49 372.65 173.06 369.32 174.7 363 175.44 356.99 170.41 363.93 162.79 370.94 160.37 383.43 156.04 395.99 163.62"/>
  <polygon class="st0" points="363.51 160.25 363.91 162.79 383.43 156.04 387.36 151.65 388.88 143.67 371.17 144.61 358.03 151.62 363.51 160.25"/>
  <polygon class="st0" points="393.53 137.82 388.88 143.67 371.17 144.61 358.03 151.62 361.32 142.85 357.73 138.32 366.93 132.08 377.55 130.88 393.53 137.82"/>
  <polygon class="st0" points="398.91 128.76 393.53 137.82 377.56 130.91 366.93 132.08 376.13 124.25 385.89 123.29 398.91 128.76"/>
  <polygon class="st0" points="357.73 138.32 366.93 132.08 376.13 124.25 381.17 115.89 390.86 109.35 377.88 107.39 360.33 115.71 350.55 118.35 350.44 131.75 357.73 138.32"/>
  <polygon class="st0" points="347.3 119.5 344.77 117.37 341.24 124.6 343.63 125.45 347.3 119.5"/>
  <polygon class="st0" points="348.73 113.74 352.33 115.07 359.41 103.81 348.73 105.51 348.73 113.74"/>
  <polygon class="st0" points="393.4 102.34 388.23 99.86 392.67 93.58 393.45 96.88 393.4 102.34"/>
  <polygon class="st0" points="347.19 138.55 345.15 136.55 343.12 138.55 345.16 141.25 347.19 138.55"/>
  <polygon class="st0" points="352.93 147.74 346.14 150.25 348.11 157.26 354 149.61 352.93 147.74"/>
  <polygon class="st0" points="407.56 77.26 411.45 84.98 416.03 74.52 411.45 71.1 407.56 77.26"/>
  <polygon class="st0" points="364.06 34.23 366.44 47.76 371.8 35.64 368.4 29.86 364.06 34.23"/>
  <polygon class="st0" points="290.68 221.79 332.9 216.25 339.35 195.66 296.71 183.21 304.17 195.17 287.64 207.04 290.68 221.79"/>
  <polygon class="st0" points="339.42 186.68 339.35 195.66 296.71 183.21 302.56 170.02 316.45 165.18 333.19 158.19 346.28 162.91 349.84 179.63 339.42 186.68"/>
  <polygon class="st0" points="493.55 210.84 498.13 219.06 511.57 223.14 535.67 217.93 548.83 195.28 528.84 196.94 508.8 204.83 504.76 208.02 493.55 210.84"/>
  <polygon class="st0" points="530.35 241.95 545.69 235.11 545.77 226.8 535.67 217.93 511.57 223.14 519.35 240.06 530.35 241.95"/>
  <polygon class="st0" points="508.8 204.83 504.76 196.73 504.76 187.22 506.1 177.65 516.53 179.88 521.19 196.01 528.84 196.94 508.8 204.83"/>
  <polygon class="st0" points="530.49 267.6 547.69 271.31 564.25 261.29 552.62 246.75 535.37 251.63 521.83 257.17 530.49 267.6"/>
  <polygon class="st0" points="506.1 177.65 498.42 172.3 501.3 156.35 509.42 145.92 523.03 136.24 519.85 147.9 521.55 156.23 527.03 157.63 518.09 169.34 516.53 179.88 506.1 177.65"/>
  <polygon class="st0" points="526.08 182.64 526.25 177.58 518.85 175.5 519.93 180.23 526.08 182.64"/>
  <polygon class="st0" points="539.3 190.19 539.27 188.1 531.38 186.42 537.04 191.24 539.3 190.19"/>
  <polygon class="st0" points="539.4 293.98 558.63 293.99 562.11 281.97 564.25 261.29 547.69 271.31 530.49 267.6 531.29 279.29 534.45 283.31 539.4 293.98"/>
  <polygon class="st0" points="530.35 241.95 535.37 251.63 552.62 246.75 564.48 238.31 558.55 230.33 545.69 235.11 530.35 241.95"/>
  <polygon class="st0" points="545.77 226.8 545.69 235.11 558.55 230.33 567.6 219.42 570.57 202.76 552.06 190.79 548.83 195.28 535.67 217.93 545.77 226.8"/>
  <polygon class="st0" points="601.71 337.82 622.95 342.4 639.05 334.95 638.19 318.59 628.97 300.32 604.31 320.54 601.71 337.82"/>
  <polygon class="st0" points="533.43 178.06 540.76 182.84 543.47 170.18 541.5 166.25 532.32 170.73 533.43 178.06"/>
  <polygon class="st0" points="613.51 401.4 645.08 413.37 655.11 402.21 654.91 385.96 652.46 378.9 621.43 373.4 621.06 384.71 613.51 401.4"/>
  <polygon class="st0" points="627.15 358.79 651.25 359.63 665.43 346.26 656.03 337.64 651.15 333.83 639.05 334.95 622.95 342.4 627.15 358.79"/>
  <polygon class="st0" points="558.55 230.33 564.48 238.31 590.57 234.88 602.1 217.22 594.19 202.14 585.34 196.01 570.57 202.76 567.6 219.42 558.55 230.33"/>
  <polygon class="st0" points="565.24 310.39 573.95 313.43 585.21 315.93 597.62 314.34 602.95 298.15 584.22 291.14 558.63 293.99 565.24 310.39"/>
  <polygon class="st0" points="604.31 320.54 597.62 314.34 602.95 298.15 613.26 293.27 628.97 300.32 604.31 320.54"/>
  <polygon class="st0" points="558.63 293.99 584.22 291.14 593.41 276.04 581.76 258.47 564.25 261.29 562.11 281.97 558.63 293.99"/>
  <polygon class="st0" points="552.62 246.75 564.25 261.29 581.76 258.47 594.51 252.26 590.57 234.88 564.48 238.31 552.62 246.75"/>
  <polygon class="st0" points="546.11 162.39 549.37 173.01 562.73 173.01 569.11 162.75 580.68 156.86 586.44 157.6 590.12 137.61 583.97 127.1 542.18 145.06 546.11 162.39"/>
  <polygon class="st0" points="645.08 413.37 657.11 432.04 654.47 442.2 658.61 451.23 672.46 434.92 674.76 416.22 672.85 407.71 655.11 402.21 645.08 413.37"/>
  <polygon class="st0" points="654.91 385.96 655.11 402.21 672.85 407.71 680.07 392.43 689.65 376.45 652.46 378.9 654.91 385.96"/>
  <polygon class="st0" points="651.25 359.63 652.46 378.9 689.65 376.45 683.04 356.82 665.43 346.26 651.25 359.63"/>
  <polygon class="st0" points="542.18 145.06 537.28 123.92 529.66 117.18 532.67 110.94 549.95 109.67 568.04 112.56 586.7 122.86 584.32 127.9 542.18 145.06"/>
  <polygon class="st0" points="602.12 142.73 598.98 129.87 607.63 122.48 610.26 123.69 603.34 142.37 602.12 142.73"/>
  <polygon class="st0" points="586.7 122.85 588.39 108.69 597.36 106.98 599.22 100.61 561.95 91.96 552.45 109.67 568.04 112.56 586.7 122.85"/>
  <polygon class="st0" points="532.67 110.94 552.45 109.67 561.95 91.96 543.22 87.54 522.03 106.21 532.67 110.94"/>
  <polygon class="st0" points="599.22 100.61 603.41 86.95 591.14 74.59 577.17 65.17 561.95 91.96 599.22 100.61"/>
  <polygon class="st0" points="522.03 106.21 510.64 113.21 493.28 125.91 473.59 110.34 489.33 93.5 522.03 106.21"/>
  <polygon class="st0" points="543.22 87.54 522.03 106.21 489.33 93.5 491.42 80.3 506.51 67.55 543.22 87.54"/>
  <polygon class="st0" points="482.94 100.34 473.02 99.24 473.69 85.19 472.8 71.7 491.42 80.3 489.33 93.5 482.94 100.34"/>
  <polygon class="st0" points="506.51 67.55 491.42 80.3 472.8 71.7 474.28 62.83 477.98 50.96 490.3 52.03 506.51 67.55"/>
  <polygon class="st0" points="561.95 91.96 543.22 87.54 549.74 70.67 555.24 63.66 577.17 65.17 561.95 91.96"/>
  <polygon class="st0" points="586.68 71.58 583.72 47.73 555.24 63.66 577.17 65.17 586.68 71.58"/>
  <polygon class="st0" points="584.22 291.14 602.95 298.15 613.26 293.27 625.12 279.15 593.41 276.04 584.22 291.14"/>
  <polygon class="st0" points="581.76 258.47 593.41 276.04 625.12 279.15 611.84 251.66 594.51 252.26 581.76 258.47"/>
  <polygon class="st0" points="590.57 234.88 594.51 252.26 611.84 251.66 632.62 243.36 622.32 227.53 602.08 217.22 590.57 234.88"/>
  <polygon class="st0" points="658.61 451.23 675.22 467.91 681.07 478.34 695.05 482.49 702.26 476.79 710.13 470.47 712.78 457.4 695.31 447.1 672.46 434.92 658.61 451.23"/>
  <polygon class="st0" points="700.36 483.52 690.98 493.47 699.68 500.21 701 510.49 712.9 515.72 723.33 513.72 713.71 495.83 724.48 498.81 719.58 489.6 722.36 481.96 734.12 488.83 734.65 482.88 710.13 470.47 702.26 476.79 711.78 482.31 711.56 485.52 700.36 483.52"/>
  <polygon class="st0" points="695.31 447.1 702.18 445.76 706.11 436.26 714.67 444.55 721.2 438.92 716.77 428.56 700.91 413.95 672.85 407.71 674.76 416.22 672.46 434.92 695.31 447.1"/>
  <polygon class="st0" points="543.22 87.54 549.74 70.67 555.24 63.66 540.12 48.43 515.2 41.97 506.51 67.55 543.22 87.54"/>
  <polygon class="st0" points="490.3 52.03 489.97 39.74 497.58 33.5 515.2 41.97 506.51 67.55 490.3 52.03"/>
  <polygon class="st0" points="555.24 63.66 583.72 47.73 586.76 31.28 565.14 17.01 540.12 48.42 555.24 63.66"/>
  <polygon class="st0" points="515.2 41.97 540.12 48.43 565.14 17.01 548.93 0 515.2 41.97"/>
  <polygon class="st0" points="497.58 33.5 531.9 0 548.93 0 515.2 41.97 497.58 33.5"/>
  <polygon class="st0" points="586.76 31.28 565.14 17.01 548.93 0 610.15 0 604.62 15.64 586.76 31.28"/>
  <polygon class="st0" points="607.55 73.33 607.55 80.36 614.51 82.89 614.51 76.14 607.55 73.33"/>
  <polygon class="st0" points="714.85 466.47 724.75 474.7 736.68 479.22 732.2 472.85 714.85 466.47"/>
  <polygon class="st0" points="585.34 196.01 594.19 202.14 602.1 217.22 622.31 227.54 626.96 199.7 617.68 189.33 598.42 185.49 585.34 196.01"/>
  <polygon class="st0" points="613.26 293.27 628.96 300.32 654.07 285.92 645.83 272.17 625.12 279.15 613.26 293.27"/>
  <polygon class="st0" points="611.84 251.66 625.12 279.15 645.83 272.18 649.9 263.53 642.6 256.27 632.62 243.36 611.84 251.66"/>
  <polygon class="st0" points="716.77 428.56 728.59 421.88 750.67 425.8 759.84 428.59 773.61 412.43 779.84 411.64 788.08 410.6 787.38 407.03 772.05 397.68 740.34 404.25 700.91 413.95 716.77 428.56"/>
  <polygon class="st0" points="672.85 407.71 700.91 413.95 728.43 407.18 718.33 381.42 689.65 376.45 680.07 392.43 672.85 407.71"/>
  <polygon class="st0" points="772.05 397.68 728.43 407.18 718.33 381.42 766.18 379.13 772.05 397.68"/>
  <polygon class="st0" points="621.35 193.43 630.83 182.91 625.39 178.78 635.5 162.17 650.9 171.78 654.21 196.45 626.96 199.7 621.35 193.43"/>
  <polygon class="st0" points="622.32 227.53 626.96 199.7 654.2 196.44 662.56 212.46 659.87 235.06 632.62 243.36 622.32 227.53"/>
  <polygon class="st0" points="649.9 263.53 642.6 256.27 632.62 243.36 659.88 235.04 677.27 246.71 649.9 263.53"/>
  <polygon class="st0" points="639.05 334.95 651.14 333.81 670.93 324.21 669.02 317.44 665.65 304.62 638.18 318.58 639.05 334.95"/>
  <polygon class="st0" points="628.96 300.32 638.18 318.58 665.65 304.62 669.49 294.09 654.07 285.92 628.96 300.32"/>
  <polygon class="st0" points="651.14 333.81 656.03 337.64 665.43 346.26 683.04 356.82 688.78 342.9 687.07 323.31 670.93 324.21 651.14 333.81"/>
  <polygon class="st0" points="766.18 379.13 771.35 363.67 764.07 345.71 741.25 345.16 718.33 381.42 766.18 379.13"/>
  <polygon class="st0" points="683.04 356.82 689.65 376.45 718.33 381.42 741.25 345.16 720.32 332.38 688.78 342.9 683.04 356.82"/>
  <polygon class="st0" points="688.78 342.9 720.32 332.38 724.58 306.68 714.2 282.91 687.07 323.31 688.78 342.9"/>
  <polygon class="st0" points="741.25 345.16 764.07 345.71 777.72 330.78 781.74 314.37 768.3 309.45 755.18 302.39 741.25 345.16"/>
  <polygon class="st0" points="720.32 332.38 741.25 345.16 755.18 302.39 754.26 284.03 736.21 278.92 724.58 306.68 720.32 332.38"/>
  <polygon class="st0" points="670.93 324.21 687.07 323.31 714.2 282.91 706.2 266.57 669.49 294.09 665.65 304.62 670.93 324.21"/>
  <polygon class="st0" points="654.07 285.92 669.49 294.09 706.2 266.57 677.27 246.71 649.9 263.53 645.83 272.17 654.07 285.92"/>
  <polygon class="st0" points="635.5 162.17 632.18 147.43 640.71 122.14 644.6 121.27 656.94 134.94 662.24 131.03 673.04 143.04 650.9 171.78 635.5 162.17"/>
  <polygon class="st0" points="659.87 235.06 690.38 255.71 705.09 236.26 713.46 220.49 703.05 206.29 662.56 212.46 659.87 235.06"/>
  <polygon class="st0" points="706.2 266.57 690.38 255.71 705.09 236.26 713.46 220.49 733.08 230.61 746.82 242.38 736.21 278.92 724.58 306.68 706.2 266.57"/>
  <polygon class="st0" points="650.9 171.78 654.21 196.45 688.56 179.77 695.81 162.19 673.04 143.04 650.9 171.78"/>
  <polygon class="st0" points="662.56 212.46 654.21 196.45 688.56 179.77 719.84 193.96 703.05 206.29 662.56 212.46"/>
  <polygon class="st0" points="781.74 314.37 794.02 299.23 803.47 303.43 821.29 297.18 798.15 289.53 755.18 302.39 768.3 309.45 781.74 314.37"/>
  <polygon class="st0" points="754.26 284.03 755.17 302.38 798.15 289.53 814.79 277.62 769.66 258.55 754.26 284.03"/>
  <polygon class="st0" points="821.29 297.18 821.75 306.5 811.46 318.39 827.34 318.96 827.37 330.16 835.55 325.66 847.84 312.47 840.27 308.64 833.05 302.38 833 294.16 821.29 297.18"/>
  <polygon class="st0" points="798.15 289.53 821.29 297.18 833 294.16 840.27 288.48 814.79 277.62 798.15 289.53"/>
  <polygon class="st0" points="736.21 278.92 754.26 284.03 769.66 258.55 766.78 233.46 746.82 242.38 736.21 278.92"/>
  <polygon class="st0" points="662.24 131.03 661.22 118.08 661.38 106.56 650.08 98.91 651.11 90.23 664.93 84.33 681.27 82.14 682.56 108.89 673.04 143.04 662.24 131.03"/>
  <polygon class="st0" points="688.56 179.77 719.84 193.96 729.49 180.55 723.41 162.49 695.81 162.19 688.56 179.77"/>
  <polygon class="st0" points="703.05 206.29 713.46 220.49 733.08 230.61 741.15 218.86 743.1 206.79 719.84 193.96 703.05 206.29"/>
  <polygon class="st0" points="746.82 242.38 733.08 230.61 741.15 218.86 743.1 206.79 756.48 211.32 773.68 226.33 766.78 233.46 746.82 242.38"/>
  <polygon class="st0" points="840.27 288.48 852.39 276.86 860.83 271.27 852.74 260.15 814.79 277.62 840.27 288.48"/>
  <polygon class="st0" points="769.66 258.55 812.74 247.32 852.74 260.15 814.79 277.62 769.66 258.55"/>
  <polygon class="st0" points="859.78 307.69 867.02 300.78 875.03 297.58 873.35 285.92 880.45 280.94 896.84 290.89 902.59 304.82 888.64 311.16 859.78 307.69"/>
  <polygon class="st0" points="860.83 271.27 869.63 265.29 880.45 280.94 896.84 290.89 897.98 271.62 881.52 250.7 852.74 260.15 860.83 271.27"/>
  <polygon class="st0" points="769.66 258.55 812.74 247.32 812.74 223.89 773.68 226.33 766.78 233.46 769.66 258.55"/>
  <polygon class="st0" points="673.04 143.04 695.81 162.19 736.56 119.82 702.85 65.04 681.27 82.14 682.56 108.89 673.04 143.04"/>
  <polygon class="st0" points="852.74 260.15 881.52 250.7 871.84 230.64 812.74 247.32 852.74 260.15"/>
  <polygon class="st0" points="812.74 223.89 830.85 190.71 867.06 208.71 871.84 230.64 812.74 247.32 812.74 223.89"/>
  <polygon class="st0" points="773.68 226.33 812.74 223.89 830.86 190.71 803.8 161.83 756.48 211.32 773.68 226.33"/>
  <polygon class="st0" points="719.84 193.96 743.1 206.79 756.48 211.32 782.08 184.54 761.39 169.94 729.49 180.55 719.84 193.96"/>
  <polygon class="st0" points="695.81 162.19 723.41 162.49 729.49 180.55 761.39 169.94 736.56 119.82 695.81 162.19"/>
  <polygon class="st0" points="902.59 304.82 924.66 315.91 944.1 286.85 896.84 290.89 902.59 304.82"/>
  <polygon class="st0" points="897.98 271.62 896.84 290.89 944.1 286.85 934.97 243.36 897.98 271.62"/>
  <polygon class="st0" points="881.52 250.7 897.98 271.62 934.97 243.36 911.37 228.35 871.84 230.64 881.52 250.7"/>
  <polygon class="st0" points="702.85 65.04 691.36 59.84 684.21 52.67 695.33 42.57 724.14 55.37 721.11 94.71 702.85 65.04"/>
  <polygon class="st0" points="736.56 119.82 721.11 94.71 724.14 55.37 755.78 72.09 759.25 103.36 736.56 119.82"/>
  <polygon class="st0" points="736.56 119.82 751.6 150.18 788.84 128.72 799.48 114.89 759.25 103.36 736.56 119.82"/>
  <polygon class="st0" points="761.39 169.94 782.08 184.54 803.8 161.83 799.48 114.89 788.84 128.72 751.6 150.18 761.39 169.94"/>
  <polygon class="st0" points="684.21 52.67 674.11 62.69 659.14 71.64 647.16 61.66 654.09 42.57 672.19 27.83 692.72 38.14 695.33 42.57 684.21 52.67"/>
  <polygon class="st0" points="924.66 315.91 926.83 323.3 947.95 327.12 952.21 353.05 968.13 347.89 984.93 344.29 997.56 345.84 998.01 311.02 944.1 286.85 924.66 315.91"/>
  <polygon class="st0" points="871.84 230.64 911.37 228.35 919.1 210.84 918.35 191.41 867.06 208.71 871.84 230.64"/>
  <polygon class="st0" points="830.85 190.71 867.06 208.71 894.54 199.46 872.46 162.19 830.85 190.71"/>
  <polygon class="st0" points="659.14 71.64 635.11 77.54 622.61 67.43 620.45 55.86 647.16 61.66 659.14 71.64"/>
  <polygon class="st0" points="654.09 42.57 647.16 61.66 620.45 55.86 618.18 42.15 613.09 28.65 654.09 42.57"/>
  <polygon class="st0" points="672.19 27.83 654.09 42.57 613.09 28.65 617.03 19.4 625.82 10.11 672.19 27.83"/>
  <polygon class="st0" points="692.72 38.14 699.4 26.03 702.98 11.26 690.25 .47 661.88 0 672.19 27.83 692.72 38.14"/>
  <polygon class="st0" points="625.82 10.11 672.19 27.83 661.88 0 631.07 0 625.82 10.11"/>
  <polygon class="st0" points="699.4 26.03 710.45 31.63 725.23 38.79 744.01 23.54 734.1 19.31 743.02 7.28 738.05 0 690.25 .47 702.98 11.26 699.4 26.03"/>
  <polygon class="st0" points="727.77 57.43 725.23 38.79 744.01 23.54 755.09 37.23 763.42 52.97 755.78 72.09 727.77 57.43"/>
  <polygon class="st0" points="944.1 286.85 998.01 311.02 997.67 239.19 934.97 243.36 944.1 286.85"/>
  <polygon class="st0" points="911.37 228.35 934.97 243.36 967.58 241.22 976.12 202.34 918.35 191.41 919.1 210.84 911.37 228.35"/>
  <polygon class="st0" points="759.25 103.36 755.78 72.09 763.42 52.97 807.91 57.82 799.48 114.89 759.25 103.36"/>
  <polygon class="st0" points="755.09 37.23 756.52 21.58 800.01 21.62 825.05 39.91 807.91 57.82 763.42 52.97 755.09 37.23"/>
  <polygon class="st0" points="743.02 7.27 756.52 21.58 800.01 21.62 801.16 0 738.05 0 743.02 7.27"/>
  <polygon class="st0" points="967.58 241.22 997.67 239.19 998.96 189.75 976.12 202.34 967.58 241.22"/>
  <polygon class="st0" points="830.85 190.71 872.46 162.19 862.62 149.54 841.12 136.93 803.8 161.83 830.85 190.71"/>
  <polygon class="st0" points="799.48 114.89 803.8 161.83 841.12 136.93 846.75 126.84 840.45 109.72 825.1 105.07 799.48 114.89"/>
  <polygon class="st0" points="894.54 199.46 918.35 191.41 942.77 196.51 955.33 165.83 940.44 128.61 916.82 134.84 872.46 162.19 894.54 199.46"/>
  <polygon class="st0" points="976.12 202.34 942.77 196.51 955.33 165.83 969.28 138.25 998.89 125.98 998.96 189.75 976.12 202.34"/>
  <polygon class="st0" points="841.12 136.93 862.62 149.54 872.46 162.19 916.82 134.84 910.76 98.91 889.96 82.68 846.75 126.84 841.12 136.93"/>
  <polygon class="st0" points="840.45 109.72 846.43 127.33 889.96 82.68 853.28 58.24 825.1 105.07 840.45 109.72"/>
  <polygon class="st0" points="799.48 114.89 825.1 105.07 853.28 58.24 825.05 39.91 807.91 57.82 799.48 114.89"/>
  <polygon class="st0" points="800.01 21.62 801.15 0 868.25 0 893.44 37.17 853.28 58.24 825.05 39.91 800.01 21.62"/>
  <polygon class="st0" points="889.96 82.68 853.28 58.24 893.44 37.17 933.33 56.5 937.03 89.01 910.76 98.91 889.96 82.68"/>
  <polygon class="st0" points="916.82 134.84 940.44 128.61 955.49 164.62 969.28 138.25 998.89 125.98 999.15 80.24 937.03 89.01 910.76 98.91 916.82 134.84"/>
  <polygon class="st0" points="933.33 56.5 937.03 89.01 999.15 80.24 999.04 0 933.33 56.5"/>
  <polygon class="st0" points="893.44 37.17 933.33 56.5 999.04 0 868.25 0 893.44 37.17"/>
  <polygon class="st0" points="984.93 344.29 997.56 345.84 998.26 423.2 979.82 411.37 966.49 410.52 948.53 378.84 944.95 359.89 952.21 353.05 968.13 347.89 984.93 344.29"/>
  <polygon class="st0" points="765.98 464.85 772.67 480.82 789.69 487.06 798.22 472.12 792.82 455.19 775.19 431.18 766.29 428.97 758.52 436.61 756.79 446.8 766.17 443.42 765.98 464.85"/>
  <polygon class="st0" points="998.26 423.2 998.1 466.31 978.92 459.66 967.33 455.71 966.39 441.77 966.49 410.52 979.82 411.37 998.26 423.2"/>
  <polygon class="st0" points="944.95 359.89 919.11 374.71 926.58 388.97 966.49 410.52 948.53 378.84 944.95 359.89"/>
  <polygon class="st0" points="967.33 455.71 942.54 456.4 933.98 437.29 931.46 426.41 935.34 405.36 943.79 398.26 966.49 410.52 966.05 443.8 967.33 455.71"/>
  <polygon class="st0" points="789.69 487.06 813.93 490.47 833.78 488.85 831.25 478.83 826.5 465.33 798.22 472.11 789.69 487.06"/>
  <polygon class="st0" points="792.82 455.19 798.22 472.11 826.5 465.33 815.26 439.45 792.82 455.19"/>
  <polygon class="st0" points="775.19 431.18 792.82 455.19 815.26 439.45 816.31 423.86 805.56 408.68 792.75 407.63 791.6 411.33 799.06 413.95 781.1 425.09 775.19 431.18"/>
  <polygon class="st0" points="831.25 478.83 844.01 477.62 856.77 480.82 858.67 470.27 851.34 461.6 826.5 465.33 831.25 478.83"/>
  <polygon class="st0" points="815.26 439.45 826.5 465.33 851.34 461.6 849.74 444.87 849.76 438.32 848.63 428.17 815.26 439.45"/>
  <polygon class="st0" points="998.1 466.31 998.27 493.94 989.14 496.06 963.57 495.47 946.02 483.95 942.54 456.4 967.33 455.71 998.1 466.31"/>
  <polygon class="st0" points="856.77 480.82 868.07 483.97 882.77 472.55 858.67 470.27 856.77 480.82"/>
  <polygon class="st0" points="851.34 461.6 858.67 470.27 882.77 472.55 893.01 459.89 879.32 447.96 851.34 461.6"/>
  <polygon class="st0" points="849.76 438.32 849.73 444.87 851.34 461.6 879.32 447.96 878.73 422.72 848.63 428.17 849.76 438.32"/>
  <polygon class="st0" points="893.01 459.89 899.41 464.25 905.73 454.25 908.39 431.68 878.73 422.72 879.32 447.96 893.01 459.89"/>
  <polygon class="st0" points="942.54 456.4 905.73 454.25 908.39 431.68 931.46 426.41 933.98 437.29 942.54 456.4"/>
  <polygon class="st0" points="943.79 398.26 935.34 405.36 931.46 426.41 908.39 431.68 903.71 401.63 926.59 388.96 943.79 398.26"/>
  <polygon class="st0" points="919.11 374.71 894.32 375.12 887.41 380.24 903.71 401.63 926.59 388.96 919.11 374.71"/>
  <polygon class="st0" points="905.73 454.25 919.81 492.2 946.02 483.95 942.54 456.4 905.73 454.25"/>
  <polygon class="st0" points="815.26 439.45 816.31 423.86 805.56 408.68 818.87 404.04 835.33 384.4 844.9 398.55 848.63 428.17 815.26 439.45"/>
  <polygon class="st0" points="878.73 422.72 908.39 431.68 903.71 401.63 875.16 395.37 878.73 422.72"/>
  <polygon class="st0" points="887.41 380.24 903.72 401.63 875.16 395.37 858.63 375.11 864.48 370.56 887.41 380.24"/>
  <polygon class="st0" points="844.9 398.55 875.16 395.37 858.63 375.11 835.33 384.4 844.9 398.55"/>
  <polygon class="st0" points="848.63 428.17 844.9 398.55 875.16 395.37 878.73 422.72 848.63 428.17"/>
  <polygon class="st0" points="868.08 509.4 876.67 509.38 889.64 493.38 894.43 484.25 872.99 495.43 864.62 502.51 868.08 509.4"/>
  <polygon class="st0" points="919.81 492.2 918.82 523.92 954.22 521.88 963.57 495.47 946.02 483.95 919.81 492.2"/>
  <polygon class="st0" points="998.27 493.94 997.75 533.23 954.22 521.88 963.57 495.47 989.14 496.06 998.27 493.94"/>
  <polygon class="st0" points="918.82 523.92 917.19 547.59 928.04 558.6 941.72 544.79 953.52 558.6 956.73 558.6 973.28 526.85 954.22 521.88 918.82 523.92"/>
  <polygon class="st0" points="996.98 562.28 973.28 526.85 997.75 533.23 996.98 562.28"/>
  <path class="st0" d="M784.26,491.19l2.82.82,1.81,1.58-.75,2c-4.45,1.09-6.18,3.07-9.7,5.97,1.3-3.61,2.58-8.31,5.82-10.38h0Z"/>
  <path class="st0" d="M743.37,482.48c1.08-.08,1.76-.07,2.78.33l-.07,1.41-.93.03-1.77-1.77h-.01Z"/>
  <path class="st0" d="M722.43,441.72c1.12,1.59,2,2.54,2.32,4.44l-.69.77-1.63-.34c-.52-2.11-.86-2.82,0-4.88h0Z"/>
  <path class="st0" d="M739.64,479.09c.76.74,1.42,1.31,2.05,2.17l-.21.85-.95,1.08-1.11-.4.21-3.71h.01Z"/>
  <path class="st0" d="M760.22,538.6c-1.14.91-1.18.92-2.61,1.27-2.44-.91-19.1-4.14-21.21-2.48-.49.39-1.02.26-1.81-.07-.8-1.67-1.15-5.89.03-7.32,6.43.46,5.79-2.53,8.3-2.64,1.89,1.06,2.83,3.15,3.97,5.07,2.43-2.05,3.15-3.13,6.1-2.89l.54.13c3.37,1.03,4.09-1.47,6.47-.57,4.07.94,4.65-1.41,7.32-.66l.26.58c2.17,1.41,1.57,1,4.36,1.21,1.68-1.19,3-2.45,4.97-2.56,2.21,1.4,1.76,3.29,1.74,5.74-3.46,2.17-9.7,3.1-13.65,2.7-1.57.81-3.24,1.64-4.78,2.49h0Z"/>
  <path class="st0" d="M752.93,453.88c10.12-7.74,14.38-.02,10.36,3.76-1.99.4-1.16.44-3.16-.2l-1.7-2.16c-1.49.84-3.38,1.88-5.02,1.45-.92-1.38-.67-.83-.48-2.85Z"/>
  <path class="st0" d="M795.48,504.52c1.35-3.52,2.61-5.02,5.92-6.94l1-.07c2.77,4.28-2.11,6.04-3.01,10.44-.71,1.79-1.04,2.57-2.98,2.61-2.17-2-1.58-3.51-.92-6.03h-.01Z"/>
  <path class="st0" d="M757.64,464.78c1.44-.03,2.32-.21,3.62.53.94,2.17,1.35,3.8,1.19,6.18-.16,2.24-.29,2.69-2.02,4.15-.58-.22-1.25-.44-1.77-.77-2.28-1.48-1.37-6.17-1.69-8.61-.09-.73.25-.9.67-1.48h0Z"/>
  <path class="st0" d="M787.6,516.37c1.39,1.07,1.62,4.29,2.09,6.09-.87-.41-1.53-1.02-2.26-1.64-.68-1.59-.21-2.85.17-4.46h0Z"/>
  <path class="st0" d="M756.68,493.98l.78.53c.78,1.59.44,2.42.22,4.15-.23-.2-.3-.25-.5-.53-.99-1.34-.6-2.6-.49-4.15h-.01Z"/>
  <path class="st0" d="M743.66,504.11c.69.13,1.38.37,2.05.57l.25.91-1.32,2.1c-.54-.07-1.1-.27-1.62-.42-.34-1.43.06-1.84.63-3.16h.01Z"/>
  <path class="st0" d="M746.18,433.91l1.17,1.08c2.64-.06,2.42-.46,4.39.69.58,1.67.6.95-.21,2.71-1.87,1.07-1.02.83-3.29.81-1.42-.87-1.58-1.01-2.58-2.34l-2.23-1.84c.93-.83,1.49-.82,2.76-1.11h-.01Z"/>
  <path class="st0" d="M766.14,481.28c.37.01.74.02,1.1.1,1.46.35,1.65.51,2.35,1.75-.21,1.73-1.19,2.68-2.28,3.93-1-.09-2.33-.09-3.22-.57-.91-.5-.92-.94-1.19-1.86.57-1.78,1.77-2.41,3.25-3.36h0Z"/>
  <path class="st0" d="M762.78,498.36c1.58-.14,2.84-.58,4.2.3l.16,1.63-1.6.47c-1.61-.47-1.81-1.09-2.77-2.4h.01Z"/>
  <path class="st0" d="M740.72,492.33c.57,0,1.07.37,1.23.92.15.55-.1,1.13-.59,1.42-.45.26-1.02.21-1.42-.13-.4-.34-.55-.89-.38-1.38s.64-.82,1.16-.83h0Z"/>
  <path class="st0" d="M728.94,429.79c.69-.67,1.7-.91,2.63-.62.92.29,1.61,1.06,1.8,2.01.18.95-.17,1.92-.91,2.54-1.09.9-2.7.77-3.64-.28-.95-1.05-.88-2.66.13-3.65h-.01Z"/>
  <path class="st0" d="M737.88,441.17c1.61.18,3.22.15,4.49,1.25.3,1.7-.09,2.34-.71,3.9-1.02.31-1.56.32-2.62.16-1.19-1.76-1.01-3.2-1.16-5.31Z"/>
</svg>